<mxfile host="app.diagrams.net" agent="Mozilla/5.0 (Windows NT 10.0; Win64; x64) AppleWebKit/537.36 (KHTML, like Gecko) Chrome/131.0.0.0 Safari/537.36" version="25.0.3">
  <diagram id="C5RBs43oDa-KdzZeNtuy" name="Page-1">
    <mxGraphModel dx="792" dy="1145" grid="1" gridSize="10" guides="1" tooltips="1" connect="1" arrows="1" fold="1" page="1" pageScale="1" pageWidth="827" pageHeight="1169" math="0" shadow="0">
      <root>
        <mxCell id="WIyWlLk6GJQsqaUBKTNV-0" />
        <mxCell id="WIyWlLk6GJQsqaUBKTNV-1" parent="WIyWlLk6GJQsqaUBKTNV-0" />
        <mxCell id="WfrXptu_8qniahOwDYU7-12" style="edgeStyle=orthogonalEdgeStyle;rounded=0;orthogonalLoop=1;jettySize=auto;html=1;exitX=0.5;exitY=1;exitDx=0;exitDy=0;entryX=0.5;entryY=0;entryDx=0;entryDy=0;" edge="1" parent="WIyWlLk6GJQsqaUBKTNV-1" source="WfrXptu_8qniahOwDYU7-0" target="WfrXptu_8qniahOwDYU7-1">
          <mxGeometry relative="1" as="geometry">
            <mxPoint x="410" y="640" as="targetPoint" />
          </mxGeometry>
        </mxCell>
        <mxCell id="WfrXptu_8qniahOwDYU7-0" value="Начало" style="ellipse;whiteSpace=wrap;html=1;" vertex="1" parent="WIyWlLk6GJQsqaUBKTNV-1">
          <mxGeometry x="365" y="585" width="90" height="40" as="geometry" />
        </mxCell>
        <mxCell id="WfrXptu_8qniahOwDYU7-11" style="edgeStyle=orthogonalEdgeStyle;rounded=0;orthogonalLoop=1;jettySize=auto;html=1;entryX=0.5;entryY=0;entryDx=0;entryDy=0;" edge="1" parent="WIyWlLk6GJQsqaUBKTNV-1" source="WfrXptu_8qniahOwDYU7-1" target="WfrXptu_8qniahOwDYU7-2">
          <mxGeometry relative="1" as="geometry" />
        </mxCell>
        <mxCell id="WfrXptu_8qniahOwDYU7-34" value="{" style="edgeLabel;html=1;align=center;verticalAlign=middle;resizable=0;points=[];" vertex="1" connectable="0" parent="WfrXptu_8qniahOwDYU7-11">
          <mxGeometry x="-0.64" relative="1" as="geometry">
            <mxPoint x="-10" as="offset" />
          </mxGeometry>
        </mxCell>
        <mxCell id="WfrXptu_8qniahOwDYU7-1" value="void DivisionMethod()" style="shape=process;whiteSpace=wrap;html=1;backgroundOutline=1;" vertex="1" parent="WIyWlLk6GJQsqaUBKTNV-1">
          <mxGeometry x="330" y="650" width="160" height="30" as="geometry" />
        </mxCell>
        <mxCell id="WfrXptu_8qniahOwDYU7-13" style="edgeStyle=orthogonalEdgeStyle;rounded=0;orthogonalLoop=1;jettySize=auto;html=1;entryX=0.5;entryY=0;entryDx=0;entryDy=0;" edge="1" parent="WIyWlLk6GJQsqaUBKTNV-1" source="WfrXptu_8qniahOwDYU7-2" target="WfrXptu_8qniahOwDYU7-3">
          <mxGeometry relative="1" as="geometry" />
        </mxCell>
        <mxCell id="WfrXptu_8qniahOwDYU7-2" value="x0 = 1;&lt;div&gt;x1 = 0;&lt;/div&gt;" style="rounded=0;whiteSpace=wrap;html=1;" vertex="1" parent="WIyWlLk6GJQsqaUBKTNV-1">
          <mxGeometry x="380" y="710" width="60" height="40" as="geometry" />
        </mxCell>
        <mxCell id="WfrXptu_8qniahOwDYU7-14" style="edgeStyle=orthogonalEdgeStyle;rounded=0;orthogonalLoop=1;jettySize=auto;html=1;entryX=0.5;entryY=0;entryDx=0;entryDy=0;" edge="1" parent="WIyWlLk6GJQsqaUBKTNV-1" source="WfrXptu_8qniahOwDYU7-3" target="WfrXptu_8qniahOwDYU7-4">
          <mxGeometry relative="1" as="geometry" />
        </mxCell>
        <mxCell id="WfrXptu_8qniahOwDYU7-28" value="{" style="edgeLabel;html=1;align=center;verticalAlign=middle;resizable=0;points=[];" vertex="1" connectable="0" parent="WfrXptu_8qniahOwDYU7-14">
          <mxGeometry x="0.28" y="2" relative="1" as="geometry">
            <mxPoint x="-12" y="-2" as="offset" />
          </mxGeometry>
        </mxCell>
        <mxCell id="WfrXptu_8qniahOwDYU7-29" value="1" style="edgeLabel;html=1;align=center;verticalAlign=middle;resizable=0;points=[];" vertex="1" connectable="0" parent="WfrXptu_8qniahOwDYU7-14">
          <mxGeometry x="0.28" y="1" relative="1" as="geometry">
            <mxPoint x="9" as="offset" />
          </mxGeometry>
        </mxCell>
        <mxCell id="WfrXptu_8qniahOwDYU7-32" style="edgeStyle=orthogonalEdgeStyle;rounded=0;orthogonalLoop=1;jettySize=auto;html=1;entryX=0.5;entryY=0;entryDx=0;entryDy=0;" edge="1" parent="WIyWlLk6GJQsqaUBKTNV-1" source="WfrXptu_8qniahOwDYU7-3" target="WfrXptu_8qniahOwDYU7-9">
          <mxGeometry relative="1" as="geometry">
            <Array as="points">
              <mxPoint x="690" y="835" />
              <mxPoint x="690" y="1200" />
              <mxPoint x="410" y="1200" />
            </Array>
          </mxGeometry>
        </mxCell>
        <mxCell id="WfrXptu_8qniahOwDYU7-33" value="0" style="edgeLabel;html=1;align=center;verticalAlign=middle;resizable=0;points=[];" vertex="1" connectable="0" parent="WfrXptu_8qniahOwDYU7-32">
          <mxGeometry x="-0.8549" relative="1" as="geometry">
            <mxPoint x="-19" y="-15" as="offset" />
          </mxGeometry>
        </mxCell>
        <mxCell id="WfrXptu_8qniahOwDYU7-3" value="while (fabs(equation(x0) - equation(x1)) &amp;gt; Epsilon)" style="rhombus;whiteSpace=wrap;html=1;" vertex="1" parent="WIyWlLk6GJQsqaUBKTNV-1">
          <mxGeometry x="227" y="790" width="366" height="90" as="geometry" />
        </mxCell>
        <mxCell id="WfrXptu_8qniahOwDYU7-16" style="edgeStyle=orthogonalEdgeStyle;rounded=0;orthogonalLoop=1;jettySize=auto;html=1;entryX=0.5;entryY=0;entryDx=0;entryDy=0;" edge="1" parent="WIyWlLk6GJQsqaUBKTNV-1" source="WfrXptu_8qniahOwDYU7-4" target="WfrXptu_8qniahOwDYU7-6">
          <mxGeometry relative="1" as="geometry" />
        </mxCell>
        <mxCell id="WfrXptu_8qniahOwDYU7-24" value="0" style="edgeLabel;html=1;align=center;verticalAlign=middle;resizable=0;points=[];" vertex="1" connectable="0" parent="WfrXptu_8qniahOwDYU7-16">
          <mxGeometry x="-0.4531" y="2" relative="1" as="geometry">
            <mxPoint y="-13" as="offset" />
          </mxGeometry>
        </mxCell>
        <mxCell id="WfrXptu_8qniahOwDYU7-25" value="{" style="edgeLabel;html=1;align=center;verticalAlign=middle;resizable=0;points=[];" vertex="1" connectable="0" parent="WfrXptu_8qniahOwDYU7-16">
          <mxGeometry x="0.5625" relative="1" as="geometry">
            <mxPoint x="-10" as="offset" />
          </mxGeometry>
        </mxCell>
        <mxCell id="WfrXptu_8qniahOwDYU7-4" value="if (equation(x0) * equation(x1) &amp;lt; 0)" style="rhombus;whiteSpace=wrap;html=1;" vertex="1" parent="WIyWlLk6GJQsqaUBKTNV-1">
          <mxGeometry x="283" y="910" width="254" height="90" as="geometry" />
        </mxCell>
        <mxCell id="WfrXptu_8qniahOwDYU7-17" style="edgeStyle=orthogonalEdgeStyle;rounded=0;orthogonalLoop=1;jettySize=auto;html=1;" edge="1" parent="WIyWlLk6GJQsqaUBKTNV-1" source="WfrXptu_8qniahOwDYU7-5">
          <mxGeometry relative="1" as="geometry">
            <mxPoint x="410" y="1100" as="targetPoint" />
            <Array as="points">
              <mxPoint x="220" y="1100" />
              <mxPoint x="410" y="1100" />
            </Array>
          </mxGeometry>
        </mxCell>
        <mxCell id="WfrXptu_8qniahOwDYU7-5" value="x1 += (x0 - x1) / 2;" style="rounded=0;whiteSpace=wrap;html=1;" vertex="1" parent="WIyWlLk6GJQsqaUBKTNV-1">
          <mxGeometry x="160" y="1010" width="120" height="60" as="geometry" />
        </mxCell>
        <mxCell id="WfrXptu_8qniahOwDYU7-18" style="edgeStyle=orthogonalEdgeStyle;rounded=0;orthogonalLoop=1;jettySize=auto;html=1;" edge="1" parent="WIyWlLk6GJQsqaUBKTNV-1" source="WfrXptu_8qniahOwDYU7-6">
          <mxGeometry relative="1" as="geometry">
            <mxPoint x="410" y="1100" as="targetPoint" />
            <Array as="points">
              <mxPoint x="610" y="1100" />
            </Array>
          </mxGeometry>
        </mxCell>
        <mxCell id="WfrXptu_8qniahOwDYU7-6" value="buffer = x1;&lt;div&gt;x1 -= (x0 - x1) / 2;&lt;/div&gt;&lt;div&gt;x0 = buffer;&lt;/div&gt;" style="rounded=0;whiteSpace=wrap;html=1;" vertex="1" parent="WIyWlLk6GJQsqaUBKTNV-1">
          <mxGeometry x="550" y="1010" width="120" height="60" as="geometry" />
        </mxCell>
        <mxCell id="WfrXptu_8qniahOwDYU7-30" style="edgeStyle=orthogonalEdgeStyle;rounded=0;orthogonalLoop=1;jettySize=auto;html=1;" edge="1" parent="WIyWlLk6GJQsqaUBKTNV-1" source="WfrXptu_8qniahOwDYU7-7">
          <mxGeometry relative="1" as="geometry">
            <mxPoint x="410" y="770" as="targetPoint" />
            <Array as="points">
              <mxPoint x="410" y="1190" />
              <mxPoint x="120" y="1190" />
              <mxPoint x="120" y="770" />
            </Array>
          </mxGeometry>
        </mxCell>
        <mxCell id="WfrXptu_8qniahOwDYU7-31" value="}" style="edgeLabel;html=1;align=center;verticalAlign=middle;resizable=0;points=[];" vertex="1" connectable="0" parent="WfrXptu_8qniahOwDYU7-30">
          <mxGeometry x="-0.9723" relative="1" as="geometry">
            <mxPoint x="10" y="6" as="offset" />
          </mxGeometry>
        </mxCell>
        <mxCell id="WfrXptu_8qniahOwDYU7-7" value="&amp;nbsp;out();" style="rounded=0;whiteSpace=wrap;html=1;" vertex="1" parent="WIyWlLk6GJQsqaUBKTNV-1">
          <mxGeometry x="375" y="1130" width="70" height="30" as="geometry" />
        </mxCell>
        <mxCell id="WfrXptu_8qniahOwDYU7-8" value="Конец" style="ellipse;whiteSpace=wrap;html=1;" vertex="1" parent="WIyWlLk6GJQsqaUBKTNV-1">
          <mxGeometry x="375" y="1380" width="70" height="40" as="geometry" />
        </mxCell>
        <mxCell id="WfrXptu_8qniahOwDYU7-21" style="edgeStyle=orthogonalEdgeStyle;rounded=0;orthogonalLoop=1;jettySize=auto;html=1;entryX=0.5;entryY=0;entryDx=0;entryDy=0;" edge="1" parent="WIyWlLk6GJQsqaUBKTNV-1" source="WfrXptu_8qniahOwDYU7-9" target="WfrXptu_8qniahOwDYU7-10">
          <mxGeometry relative="1" as="geometry" />
        </mxCell>
        <mxCell id="WfrXptu_8qniahOwDYU7-9" value="out &amp;lt;&amp;lt; &quot;Корень уравнения: &quot; &amp;lt;&amp;lt; setprecision(10) &amp;lt;&amp;lt; x1 &amp;lt;&amp;lt; endl &amp;lt;&amp;lt; endl;" style="shape=parallelogram;perimeter=parallelogramPerimeter;whiteSpace=wrap;html=1;fixedSize=1;" vertex="1" parent="WIyWlLk6GJQsqaUBKTNV-1">
          <mxGeometry x="195" y="1230" width="430" height="30" as="geometry" />
        </mxCell>
        <mxCell id="WfrXptu_8qniahOwDYU7-22" style="edgeStyle=orthogonalEdgeStyle;rounded=0;orthogonalLoop=1;jettySize=auto;html=1;entryX=0.5;entryY=0;entryDx=0;entryDy=0;" edge="1" parent="WIyWlLk6GJQsqaUBKTNV-1" source="WfrXptu_8qniahOwDYU7-10" target="WfrXptu_8qniahOwDYU7-8">
          <mxGeometry relative="1" as="geometry" />
        </mxCell>
        <mxCell id="WfrXptu_8qniahOwDYU7-36" value="}" style="edgeLabel;html=1;align=center;verticalAlign=middle;resizable=0;points=[];" vertex="1" connectable="0" parent="WfrXptu_8qniahOwDYU7-22">
          <mxGeometry x="-0.16" y="-1" relative="1" as="geometry">
            <mxPoint x="11" as="offset" />
          </mxGeometry>
        </mxCell>
        <mxCell id="WfrXptu_8qniahOwDYU7-10" value="x0 = 2;&lt;div&gt;x1 = 2;&lt;/div&gt;" style="rounded=0;whiteSpace=wrap;html=1;" vertex="1" parent="WIyWlLk6GJQsqaUBKTNV-1">
          <mxGeometry x="380" y="1300" width="60" height="30" as="geometry" />
        </mxCell>
        <mxCell id="WfrXptu_8qniahOwDYU7-15" style="edgeStyle=orthogonalEdgeStyle;rounded=0;orthogonalLoop=1;jettySize=auto;html=1;entryX=0.442;entryY=-0.05;entryDx=0;entryDy=0;entryPerimeter=0;" edge="1" parent="WIyWlLk6GJQsqaUBKTNV-1" source="WfrXptu_8qniahOwDYU7-4" target="WfrXptu_8qniahOwDYU7-5">
          <mxGeometry relative="1" as="geometry">
            <Array as="points">
              <mxPoint x="213" y="955" />
            </Array>
          </mxGeometry>
        </mxCell>
        <mxCell id="WfrXptu_8qniahOwDYU7-23" value="1" style="edgeLabel;html=1;align=center;verticalAlign=middle;resizable=0;points=[];" vertex="1" connectable="0" parent="WfrXptu_8qniahOwDYU7-15">
          <mxGeometry x="-0.3115" y="-3" relative="1" as="geometry">
            <mxPoint y="-12" as="offset" />
          </mxGeometry>
        </mxCell>
        <mxCell id="WfrXptu_8qniahOwDYU7-26" value="{" style="edgeLabel;html=1;align=center;verticalAlign=middle;resizable=0;points=[];" vertex="1" connectable="0" parent="WfrXptu_8qniahOwDYU7-15">
          <mxGeometry x="0.4918" y="2" relative="1" as="geometry">
            <mxPoint x="-15" y="4" as="offset" />
          </mxGeometry>
        </mxCell>
        <mxCell id="WfrXptu_8qniahOwDYU7-19" value="" style="endArrow=classic;html=1;rounded=0;entryX=0.5;entryY=0;entryDx=0;entryDy=0;" edge="1" parent="WIyWlLk6GJQsqaUBKTNV-1" target="WfrXptu_8qniahOwDYU7-7">
          <mxGeometry width="50" height="50" relative="1" as="geometry">
            <mxPoint x="410" y="1100" as="sourcePoint" />
            <mxPoint x="430" y="1060" as="targetPoint" />
          </mxGeometry>
        </mxCell>
        <mxCell id="WfrXptu_8qniahOwDYU7-27" value="}" style="edgeLabel;html=1;align=center;verticalAlign=middle;resizable=0;points=[];" vertex="1" connectable="0" parent="WfrXptu_8qniahOwDYU7-19">
          <mxGeometry x="-0.2" relative="1" as="geometry">
            <mxPoint x="10" as="offset" />
          </mxGeometry>
        </mxCell>
      </root>
    </mxGraphModel>
  </diagram>
</mxfile>
